<svg width="51" height="50" viewBox="0 0 51 50" fill="none" xmlns="http://www.w3.org/2000/svg">
<path d="M42.1667 43.75C42.1667 40.8426 42.1667 39.3889 41.8079 38.2059C41 35.5426 38.9158 33.4584 36.2524 32.6505C35.0695 32.2917 33.6158 32.2917 30.7084 32.2917H20.2917C17.3843 32.2917 15.9306 32.2917 14.7477 32.6505C12.0843 33.4584 10.0001 35.5426 9.19221 38.2059C8.83337 39.3889 8.83337 40.8426 8.83337 43.75M34.875 15.625C34.875 20.8027 30.6777 25 25.5 25C20.3224 25 16.125 20.8027 16.125 15.625C16.125 10.4473 20.3224 6.25 25.5 6.25C30.6777 6.25 34.875 10.4473 34.875 15.625Z" stroke="white" stroke-width="2.5" stroke-linecap="round" stroke-linejoin="round"/>
</svg>
