<svg width="51" height="50" viewBox="0 0 51 50" fill="none" xmlns="http://www.w3.org/2000/svg">
<path d="M15.0833 45.8334V22.9167M4.66663 27.0834V41.6668C4.66663 43.9679 6.53211 45.8334 8.83329 45.8334H36.8046C39.8895 45.8334 42.5129 43.5827 42.982 40.5338L45.2255 25.9504C45.808 22.1644 42.8788 18.7501 39.0482 18.7501H31.75C30.5994 18.7501 29.6666 17.8173 29.6666 16.6667V9.30391C29.6666 6.46674 27.3666 4.16675 24.5295 4.16675C23.8527 4.16675 23.2395 4.56528 22.9647 5.18367L15.6332 21.6795C15.2988 22.4319 14.5527 22.9167 13.7294 22.9167H8.83329C6.53211 22.9167 4.66663 24.7822 4.66663 27.0834Z" stroke="white" stroke-width="2.5" stroke-linecap="round" stroke-linejoin="round"/>
</svg>
