<svg width="51" height="50" viewBox="0 0 51 50" fill="none" xmlns="http://www.w3.org/2000/svg">
<g clip-path="url(#clip0_542_2)">
<path d="M18.375 1.66675V8.66675M32.625 1.66675V8.66675M18.375 41.3334V48.3334M32.625 41.3334V48.3334M42.125 18.0001H49.25M42.125 29.6667H49.25M1.75 18.0001H8.875M1.75 29.6667H8.875M20.275 41.3334H30.725C34.7154 41.3334 36.7106 41.3334 38.2347 40.5705C39.5753 39.8993 40.6653 38.8285 41.3484 37.5114C42.125 36.014 42.125 34.0538 42.125 30.1334V19.8667C42.125 15.9464 42.125 13.9862 41.3484 12.4888C40.6653 11.1717 39.5753 10.1008 38.2347 9.4297C36.7106 8.66675 34.7154 8.66675 30.725 8.66675H20.275C16.2846 8.66675 14.2894 8.66675 12.7653 9.4297C11.4247 10.1008 10.3347 11.1717 9.65158 12.4888C8.875 13.9862 8.875 15.9464 8.875 19.8668V30.1334C8.875 34.0538 8.875 36.014 9.65158 37.5114C10.3347 38.8285 11.4247 39.8993 12.7653 40.5705C14.2894 41.3334 16.2846 41.3334 20.275 41.3334Z" stroke="white" stroke-width="2.5" stroke-linecap="round" stroke-linejoin="round"/>
</g>
<defs>
<clipPath id="clip0_542_2">
<rect width="50" height="50" fill="white" transform="translate(0.5)"/>
</clipPath>
</defs>
</svg>
