<svg xmlns="http://www.w3.org/2000/svg" width="50" height="50" fill="none" viewBox="0 0 50 50"><path stroke="#000" stroke-linecap="round" stroke-linejoin="round" stroke-width="3" d="M43.75 10.4167C43.75 13.8684 35.3553 16.6667 25 16.6667C14.6447 16.6667 6.25 13.8684 6.25 10.4167M43.75 10.4167C43.75 6.96488 35.3553 4.16666 25 4.16666C14.6447 4.16666 6.25 6.96488 6.25 10.4167M43.75 10.4167V39.5833C43.75 43.0417 35.4167 45.8333 25 45.8333C14.5833 45.8333 6.25 43.0417 6.25 39.5833V10.4167M43.75 25C43.75 28.4583 35.4167 31.25 25 31.25C14.5833 31.25 6.25 28.4583 6.25 25"/></svg>