<svg width="50" height="50" viewBox="0 0 50 50" fill="none" xmlns="http://www.w3.org/2000/svg">
<path d="M41.6667 41.6667V27.0833M25 41.6667V20.8333M8.33334 41.6667L8.33334 33.3333M27.9306 10.474L38.6982 14.5118M22.4975 11.2519L10.8338 19.9996M43.8764 13.4153C45.0968 14.6357 45.0968 16.6143 43.8764 17.8347C42.656 19.0551 40.6774 19.0551 39.457 17.8347C38.2366 16.6143 38.2366 14.6357 39.457 13.4153C40.6774 12.1949 42.656 12.1949 43.8764 13.4153ZM10.5431 19.6653C11.7634 20.8857 11.7634 22.8643 10.5431 24.0847C9.32266 25.3051 7.34402 25.3051 6.12363 24.0847C4.90325 22.8643 4.90325 20.8857 6.12363 19.6653C7.34402 18.4449 9.32266 18.4449 10.5431 19.6653ZM27.2097 7.16529C28.4301 8.38568 28.4301 10.3643 27.2097 11.5847C25.9893 12.8051 24.0107 12.8051 22.7903 11.5847C21.5699 10.3643 21.5699 8.38568 22.7903 7.16529C24.0107 5.9449 25.9893 5.9449 27.2097 7.16529Z" stroke="black" stroke-width="3" stroke-linecap="round" stroke-linejoin="round"/>
</svg>
