<svg xmlns="http://www.w3.org/2000/svg" width="25" height="25" fill="none" viewBox="0 0 25 25"><path stroke="#000" stroke-linecap="round" stroke-linejoin="round" stroke-width="1.5" d="M21.9863 18.5934L15.3507 12.5854M9.63639 12.5785L2.98634 18.5705M2.49956 7.5699L10.6576 13.2952C11.3182 13.7588 11.6485 13.9906 12.008 14.0807C12.3255 14.1602 12.6577 14.1606 12.9755 14.0818C13.3352 13.9926 13.666 13.7616 14.3277 13.2996L22.4995 7.59399M7.2839 20.5757L17.6839 20.5882C19.364 20.5902 20.2041 20.5912 20.8463 20.265C21.4111 19.9781 21.8706 19.5197 22.1589 18.9556C22.4866 18.3142 22.4876 17.4741 22.4897 15.794L22.4974 9.39399C22.4994 7.71383 22.5004 6.87375 22.1742 6.23163C21.8873 5.66679 21.4289 5.2073 20.8647 4.919C20.2234 4.59125 19.3833 4.59023 17.7032 4.58821L7.30317 4.57568C5.62301 4.57366 4.78294 4.57265 4.14081 4.89885C3.57598 5.18579 3.11648 5.64418 2.82818 6.20832C2.50043 6.84966 2.49942 7.68974 2.49739 9.3699L2.48968 15.7699C2.48766 17.45 2.48665 18.2901 2.81285 18.9323C3.09979 19.4971 3.55818 19.9566 4.12232 20.2449C4.76366 20.5726 5.60374 20.5736 7.2839 20.5757Z"/></svg>