<svg xmlns="http://www.w3.org/2000/svg" width="50" height="50" fill="none" viewBox="0 0 50 50"><path stroke="#000" stroke-linecap="round" stroke-linejoin="round" stroke-width="3" d="M15.625 22.9167H9.58335C8.41658 22.9167 7.83319 22.9167 7.38754 23.1437C6.99554 23.3435 6.67683 23.6622 6.47709 24.0542C6.25002 24.4998 6.25002 25.0832 6.25002 26.25V43.75M34.375 22.9167H40.4167C41.5835 22.9167 42.1669 22.9167 42.6125 23.1437C43.0045 23.3435 43.3232 23.6622 43.5229 24.0542C43.75 24.4998 43.75 25.0832 43.75 26.25V43.75M34.375 43.75V12.9167C34.375 10.5831 34.375 9.41634 33.9209 8.52504C33.5214 7.74103 32.884 7.10361 32.1 6.70414C31.2087 6.25 30.0419 6.25 27.7084 6.25H22.2917C19.9581 6.25 18.7914 6.25 17.9001 6.70414C17.1161 7.10361 16.4786 7.74103 16.0792 8.52504C15.625 9.41634 15.625 10.5831 15.625 12.9167V43.75M45.8334 43.75H4.16669M22.9167 14.5833H27.0834M22.9167 22.9167H27.0834M22.9167 31.25H27.0834"/></svg>