<svg width="25" height="25" viewBox="0 0 25 25" fill="none" xmlns="http://www.w3.org/2000/svg">
<path d="M8.91248 9.43084C9.60673 10.8813 10.5539 12.2411 11.754 13.4441C12.9541 14.6471 14.3116 15.5976 15.7604 16.2953C15.885 16.3553 15.9473 16.3853 16.0262 16.4084C16.3065 16.4905 16.6508 16.4322 16.8884 16.2625C16.9553 16.2147 17.0125 16.1576 17.127 16.0434C17.477 15.6943 17.652 15.5197 17.8279 15.4056C18.4913 14.9754 19.3459 14.9764 20.0083 15.4082C20.1839 15.5227 20.3585 15.6977 20.7077 16.0478L20.9023 16.2429C21.4331 16.7749 21.6985 17.041 21.8425 17.3265C22.1289 17.8944 22.1281 18.5647 21.8404 19.1319C21.6957 19.4171 21.4296 19.6825 20.8976 20.2133L20.7397 20.3708C20.2095 20.8998 19.9443 21.1643 19.5841 21.3661C19.1843 21.59 18.5636 21.7506 18.1054 21.7487C17.6924 21.747 17.4103 21.6665 16.8461 21.5056C13.8137 20.641 10.9533 19.0131 8.5682 16.6222C6.1831 14.2314 4.56207 11.3671 3.70476 8.33265C3.54523 7.76801 3.46547 7.48569 3.46474 7.07274C3.46392 6.61452 3.62603 5.99422 3.85094 5.59498C4.05362 5.2352 4.31875 4.9707 4.84901 4.44172L5.00683 4.28427C5.53891 3.75347 5.80496 3.48807 6.09051 3.34407C6.65842 3.05768 7.32868 3.05849 7.8959 3.34624C8.1811 3.49093 8.4465 3.75697 8.97731 4.28906L9.17194 4.48416C9.52113 4.83419 9.69572 5.0092 9.80979 5.18512C10.24 5.84853 10.239 6.70311 9.80716 7.36548C9.69267 7.54112 9.51765 7.71571 9.16763 8.06489C9.05318 8.17907 8.99595 8.23616 8.94803 8.30291C8.77773 8.54013 8.71862 8.88432 8.8 9.16477C8.82291 9.24369 8.85276 9.30607 8.91248 9.43084Z" stroke="black" stroke-width="1.5" stroke-linecap="round" stroke-linejoin="round"/>
</svg>
