<svg width="50" height="50" viewBox="0 0 50 50" fill="none" xmlns="http://www.w3.org/2000/svg">
<path d="M29.1666 22.9167H16.6666M20.8333 31.25H16.6666M33.3333 14.5833H16.6666M41.6666 20.8333V14.1667C41.6666 10.6663 41.6666 8.91618 40.9854 7.57923C40.3862 6.40321 39.4301 5.44709 38.2541 4.84788C36.9171 4.16667 35.167 4.16667 31.6666 4.16667H18.3333C14.833 4.16667 13.0828 4.16667 11.7459 4.84788C10.5699 5.44709 9.61373 6.40321 9.01452 7.57923C8.33331 8.91618 8.33331 10.6663 8.33331 14.1667V35.8333C8.33331 39.3337 8.33331 41.0838 9.01452 42.4208C9.61373 43.5968 10.5699 44.5529 11.7459 45.1521C13.0828 45.8333 14.833 45.8333 18.3333 45.8333H26.0416M37.5 43.75C37.5 43.75 43.75 40.771 43.75 36.3026V31.0893L39.1925 29.4608C38.0975 29.0686 36.9 29.0686 35.805 29.4608L31.25 31.0893V36.3026C31.25 40.771 37.5 43.75 37.5 43.75Z" stroke="black" stroke-width="3" stroke-linecap="round" stroke-linejoin="round"/>
</svg>
