<svg width="50" height="50" viewBox="0 0 50 50" fill="none" xmlns="http://www.w3.org/2000/svg">
<path d="M10.4165 27.0833C10.4165 20.1798 16.013 14.5833 22.9165 14.5833M10.4165 27.0833C10.4165 30.5175 11.8014 33.6282 14.0431 35.8874C14.2593 36.1053 14.3674 36.2142 14.4312 36.319C14.492 36.419 14.5275 36.505 14.5547 36.6189C14.5832 36.7382 14.5832 36.8739 14.5832 37.1455V42.0833C14.5832 42.6667 14.5832 42.9584 14.6967 43.1812C14.7966 43.3772 14.9559 43.5366 15.1519 43.6365C15.3748 43.75 15.6665 43.75 16.2498 43.75H20.2082C20.7916 43.75 21.0833 43.75 21.3061 43.6365C21.5021 43.5366 21.6614 43.3772 21.7613 43.1812C21.8748 42.9584 21.8748 42.6667 21.8748 42.0833V41.25C21.8748 40.6666 21.8748 40.3749 21.9884 40.1521C22.0882 39.9561 22.2476 39.7967 22.4436 39.6969C22.6664 39.5833 22.9581 39.5833 23.5415 39.5833H26.4582C27.0416 39.5833 27.3333 39.5833 27.5561 39.6969C27.7521 39.7967 27.9114 39.9561 28.0113 40.1521C28.1248 40.3749 28.1248 40.6666 28.1248 41.25V42.0833C28.1248 42.6667 28.1248 42.9584 28.2384 43.1812C28.3382 43.3772 28.4976 43.5366 28.6936 43.6365C28.9164 43.75 29.2081 43.75 29.7915 43.75H33.75C34.3334 43.75 34.6251 43.75 34.8479 43.6365C35.0439 43.5366 35.2033 43.3772 35.3031 43.1812C35.4167 42.9584 35.4167 42.6667 35.4167 42.0833V40.0507C35.4167 39.6297 35.4167 39.4192 35.4766 39.2503C35.534 39.0883 35.6064 38.975 35.7291 38.8547C35.8571 38.7292 36.0739 38.6285 36.5077 38.4271C38.5539 37.4771 40.3001 35.9897 41.5648 34.1462C41.7872 33.822 41.8984 33.6599 42.0172 33.5641C42.1307 33.4726 42.2326 33.4189 42.3724 33.3771C42.5185 33.3333 42.692 33.3333 43.039 33.3333H44.1667C44.75 33.3333 45.0417 33.3333 45.2646 33.2198C45.4606 33.1199 45.6199 32.9606 45.7198 32.7646C45.8333 32.5417 45.8333 32.2501 45.8333 31.6667V24.5536C45.8333 23.9982 45.8333 23.7205 45.7301 23.5063C45.6278 23.2937 45.4562 23.1222 45.2437 23.0198C45.0294 22.9167 44.7517 22.9167 44.1963 22.9167C43.7943 22.9167 43.5933 22.9167 43.4314 22.8621C43.2568 22.8032 43.1344 22.725 43.0078 22.5912C42.8903 22.4671 42.7944 22.2597 42.6026 21.8447C41.9871 20.513 41.1441 19.3079 40.1234 18.2792C39.9072 18.0614 39.7991 17.9524 39.7353 17.8477C39.6745 17.7477 39.639 17.6616 39.6118 17.5478C39.5833 17.4285 39.5833 17.2927 39.5833 17.0212V14.7095C39.5833 13.9594 39.5833 13.5844 39.4271 13.3323C39.2903 13.1115 39.0759 12.9497 38.826 12.8788C38.5406 12.7979 38.18 12.9009 37.4588 13.107L32.5159 14.5192C32.432 14.5432 32.3899 14.5552 32.3473 14.5636C32.3093 14.5711 32.271 14.5765 32.2325 14.5797C32.1891 14.5833 32.1451 14.5833 32.0571 14.5833H22.9165M10.4165 27.0833H8.33332C6.03214 27.0833 4.16666 25.2179 4.16666 22.9167C4.16666 21.3744 5.00457 20.0279 6.24999 19.3074M22.9165 14.5833H31.1761C31.2248 14.2431 31.25 13.8953 31.25 13.5417C31.25 9.51459 27.9854 6.25 23.9583 6.25C19.9312 6.25 16.6667 9.51459 16.6667 13.5417C16.6667 14.4108 16.8187 15.2445 17.0977 16.0175C18.8357 15.1017 20.8155 14.5833 22.9165 14.5833Z" stroke="black" stroke-width="3" stroke-linecap="round" stroke-linejoin="round"/>
</svg>
